<?xml version="1.0" encoding="UTF-8" standalone="no"?>
<svg
   version="1.0"
   width="1024.000000pt"
   height="1024.000000pt"
   viewBox="0 0 1024.000000 1024.000000"
   preserveAspectRatio="xMidYMid meet"
   id="svg4"
   sodipodi:docname="Muza_code_logo.svg"
   inkscape:version="1.3 (0e150ed6c4, 2023-07-21)"
   xmlns:inkscape="http://www.inkscape.org/namespaces/inkscape"
   xmlns:sodipodi="http://sodipodi.sourceforge.net/DTD/sodipodi-0.dtd"
   xmlns="http://www.w3.org/2000/svg"
   xmlns:svg="http://www.w3.org/2000/svg">
  <defs
     id="defs4" />
  <sodipodi:namedview
     id="namedview4"
     pagecolor="#ffffff"
     bordercolor="#000000"
     borderopacity="0.25"
     inkscape:showpageshadow="2"
     inkscape:pageopacity="0.0"
     inkscape:pagecheckerboard="0"
     inkscape:deskcolor="#d1d1d1"
     inkscape:document-units="pt"
     inkscape:zoom="0.5690918"
     inkscape:cx="682.66667"
     inkscape:cy="682.66667"
     inkscape:window-width="1920"
     inkscape:window-height="991"
     inkscape:window-x="-9"
     inkscape:window-y="-9"
     inkscape:window-maximized="1"
     inkscape:current-layer="g4" />
  <g
     transform="matrix(0.1,0,0,-0.1,0,1024)"
     fill="#000000"
     stroke="none"
     id="g4"
     style="display:inline">
    <path
       id="rect5"
       style="display:inline;fill:#ffffff;fill-opacity:1;stroke:#000000;stroke-width:279.99999998;stroke-dasharray:none;stroke-opacity:1"
       inkscape:label="rect5"
       d="m 5114.9447,10013.832 c -173.6352,-0.169 -344.4008,-4.228 -427.5834,-12.344 C 3820.3682,9916.277 3083.2256,9657.9445 2388.008,9198.0731 2093.1492,9001.9513 1917.3139,8857.2278 1642.7435,8584.01 1235.622,8176.8885 956.98513,7788.6935 701.35055,7277.4246 230.65858,6337.3931 88.649574,5263.4481 292.8867,4200.3334 631.02746,2439.2959 1842.9103,1056.9778 3548.4927,486.19607 4046.2359,319.83075 4488.5349,241.38051 5011.9768,227.85486 c 449.0511,-10.82038 754.7249,17.58091 1183.4875,112.2603 647.8778,143.37172 1333.6373,457.18052 1874.6626,858.89184 708.7432,527.4997 1255.183,1225.423 1591.9712,2034.2559 169.0704,404.4164 281.3322,838.5906 350.3129,1339.039 32.462,246.1665 32.462,872.3979 0,1122.622 -125.7884,944.0892 -472.0404,1761.0399 -1056.3476,2495.4818 -162.3076,202.8845 -543.7458,588.3738 -731.7521,738.5083 -783.1341,623.5317 -1696.1104,991.4155 -2664.5458,1073.922 -94.6794,7.439 -271.1854,11.165 -444.8208,10.996 z" />
    <path
       d="M 0,5120 V 0 h 5120 5120 v 5120 5120 H 5120 0 Z m 5445,3610 c 716,-61 1391,-333 1970,-794 139,-111 421,-396 541,-546 432,-543 688,-1147 781,-1845 24,-185 24,-648 0,-830 -51,-370 -134,-691 -259,-990 -249,-598 -653,-1114 -1177,-1504 -400,-297 -907,-529 -1386,-635 -317,-70 -543,-91 -875,-83 -387,10 -714,68 -1082,191 -1261,422 -2157,1444 -2407,2746 -151,786 -46,1580 302,2275 189,378 395,665 696,966 203,202 333,309 551,454 514,340 1059,531 1700,594 123,12 505,12 645,1 z"
       id="path1"
       style="display:none" />
    <path
       d="m 4938.9385,8452.8032 c -51.3975,-12.1731 -131.1988,-37.8718 -175.8334,-58.1603 -45.9872,-21.641 -384.1284,-216.4103 -752.026,-432.8207 -367.8976,-217.7629 -869.6991,-512.622 -1114.5133,-654.6413 -412.5322,-240.7565 -454.4617,-267.8078 -562.6669,-374.6604 -96.0321,-93.327 -128.4937,-136.609 -174.4809,-229.936 -98.7372,-202.8847 -96.0321,-150.1347 -96.0321,-1604.1417 0,-1249.7698 1.3526,-1303.8724 27.0513,-1403.9622 60.8655,-242.109 217.763,-436.8784 459.872,-578.8977 1716.4046,-998.1927 2151.9305,-1249.7697 2218.2061,-1283.5838 177.186,-87.9167 422.0002,-104.1475 608.6541,-39.2244 78.4488,27.0513 2226.3215,1260.5903 2417.0331,1389.0839 110.9104,74.3911 233.9937,215.0578 290.8015,328.6732 96.032,192.0642 93.3269,151.4873 89.2692,1629.8405 l -4.0577,1325.5134 -36.5192,108.2052 c -60.8654,178.5385 -171.7757,331.3783 -313.795,431.4681 -142.0193,100.0898 -714.1542,430.1156 -723.6221,419.2951 -27.0513,-32.4616 -165.0129,-361.1348 -155.545,-369.2502 6.7628,-5.4103 155.545,-94.6795 330.0258,-198.827 179.8911,-106.8526 340.8463,-211.0001 370.6027,-242.1091 28.4039,-29.7564 68.9808,-87.9167 87.9167,-128.4936 l 35.1667,-74.3911 V 5099.7954 3787.8076 l -37.8718,-77.0962 c -21.641,-45.9872 -67.6282,-102.7949 -109.5577,-142.0193 -45.9872,-41.9295 -308.3848,-202.8847 -746.6157,-457.1668 -370.6028,-215.0578 -857.5261,-497.7439 -1080.6992,-627.5901 -223.1732,-129.8462 -442.2887,-250.2244 -485.5708,-269.1603 -94.6795,-39.2244 -238.0513,-43.2821 -331.3783,-9.468 -50.0449,17.5834 -511.2695,274.5706 -546.4361,304.3271 -5.4103,5.4102 331.3783,742.558 749.3208,1637.9558 416.5899,895.3978 899.4555,1930.1098 1069.8787,2298.0074 171.7757,367.8976 362.4873,779.0773 424.7053,912.9812 62.218,133.9039 113.6154,248.8719 113.6154,256.9873 0,6.7628 -16.2308,22.9936 -37.8718,35.1667 -20.2885,10.8205 -297.5642,175.8334 -618.1221,363.8399 -319.2052,188.0065 -618.122,359.7822 -664.1092,381.4232 -93.327,43.2821 -258.3399,78.4488 -361.1348,77.0962 -39.2244,0 -112.2629,-9.468 -163.6603,-20.2885 z m 324.6155,-431.4681 c 73.0385,-21.641 1027.9492,-578.8977 1023.8915,-597.8336 -1.3526,-5.4103 -82.5065,-181.2437 -179.8911,-389.5386 C 5818.1055,6418.5459 5557.0605,5859.9367 5218.9194,5134.962 5045.7911,4760.3016 4731.9961,4088.077 4522.3486,3640.378 4314.0536,3194.0317 4130.1048,2799.0828 4113.874,2763.9161 l -28.4038,-62.2179 -716.8593,419.295 c -393.5964,229.936 -738.5003,439.5835 -765.5516,466.6348 -27.0513,25.6988 -67.6283,81.1539 -87.9167,123.0834 l -39.2244,77.0962 v 1318.7506 1318.7505 l 40.5769,78.4488 c 22.9936,45.9872 68.9808,106.8526 109.5578,142.0193 43.282,39.2244 370.6027,240.7565 865.6414,530.2054 1206.4877,706.0387 1371.5006,800.7183 1452.6544,834.5324 89.2693,36.5192 219.1155,40.5769 319.2053,10.8205 z"
       id="path2"
       style="stroke-width:1.35256" />
    <path
       d="m 4062.4766,6198.0779 c -52.7501,-22.9936 -1010.3659,-981.962 -1021.1864,-1021.1864 -4.0577,-16.2307 -4.0577,-60.8654 -1.3525,-98.7372 l 6.7628,-66.2757 497.7438,-490.9809 c 273.2181,-269.1604 509.9169,-496.3913 526.1476,-505.8592 44.6347,-25.6988 144.7245,-21.6411 194.7694,9.4679 86.5641,52.75 123.0834,170.4232 78.4487,254.2822 -10.8205,20.2885 -201.5321,212.3526 -422.0002,428.763 l -401.7117,392.2438 407.122,399.0065 c 223.1732,219.1155 413.8848,416.59 420.6476,436.8784 51.3975,133.9039 -51.3974,281.3335 -194.7693,279.9809 -29.7564,-1.3525 -70.3334,-8.1154 -90.6218,-17.5833 z"
       id="path3"
       style="stroke-width:1.35256" />
    <path
       d="m 6474.0994,6057.4112 c -17.5833,-36.5193 -62.218,-131.1988 -98.7372,-212.3527 l -67.6283,-148.7821 313.7951,-304.3271 313.795,-302.9745 -48.6924,-48.6923 c -27.0513,-27.0513 -198.827,-193.4167 -382.7758,-371.9553 -185.3013,-177.186 -346.2565,-340.8463 -358.4296,-365.1925 -101.4424,-179.8911 140.6667,-366.545 308.3847,-238.0513 28.4039,22.9936 258.3399,247.5193 511.2695,499.0963 422.0002,422.0002 458.5194,461.2246 467.9874,515.3272 17.5833,100.0898 0,131.1988 -178.5386,305.6796 -91.9744,87.9167 -297.5642,290.8014 -457.1668,449.0515 l -292.154,286.7437 z"
       id="path4"
       style="stroke-width:1.35256" />
  </g>
  <rect
     style="display:none;fill:#ffffff;fill-opacity:1;stroke:#000000;stroke-width:0.95;stroke-dasharray:none;stroke-opacity:1"
     id="rect4"
     width="948.88025"
     height="914.61523"
     x="40.854568"
     y="52.715572" />
</svg>
